<svg width="800" height="800" viewBox="0 0 800 800" fill="none" xmlns="http://www.w3.org/2000/svg">
<path d="M614.249 400.2C679.674 332.95 708.949 267.525 684.399 227.15C674.624 211.05 652.099 191.875 600.324 191.875C571.924 191.875 538.749 197.625 502.949 208.225C479.174 122.3 439.549 67 393.799 67C348.624 67 309.399 120.975 285.524 205.125C253.874 196.5 224.499 191.875 198.999 191.875C147.224 191.875 124.699 211.05 114.899 227.15C95.2238 259.5 108.424 307.8 152.024 363.15C161.749 375.5 172.849 387.9 184.949 400.3C119.574 467.5 90.3738 532.9 114.899 573.275C124.674 589.35 147.224 608.55 198.974 608.55C224.474 608.55 253.874 603.9 285.524 595.3C309.374 679.45 348.599 733.4 393.774 733.4C439.499 733.4 479.124 678.1 502.924 592.2C538.724 602.8 571.924 608.55 600.324 608.55C652.099 608.55 674.624 589.375 684.399 573.275C708.924 532.9 679.649 467.425 614.249 400.2ZM600.324 218.525C622.049 218.525 650.349 222.425 661.624 241C677.874 267.75 653.399 321.875 595.249 381.55C574.024 361.7 549.849 341.875 523.074 322.7C520.174 291.125 515.574 261.425 509.449 234.225C543.274 224.1 574.399 218.525 600.349 218.525H600.324ZM454.774 490.875C436.524 501.975 418.074 512.175 399.674 521.5C381.299 512.175 362.849 501.975 344.599 490.875C325.399 479.2 307.024 466.95 289.574 454.375C288.449 436.9 287.699 418.925 287.699 400.2C287.699 381.45 288.424 363.45 289.574 345.975C306.649 333.625 324.974 321.425 344.549 309.525C362.799 298.425 381.274 288.225 399.674 278.875C418.074 288.2 436.524 298.425 454.799 309.525C469.849 318.675 483.974 328.05 497.549 337.475C499.074 357.525 499.924 378.425 499.924 400.2C499.924 421.975 499.074 442.875 497.549 462.9C483.974 472.35 469.849 481.725 454.774 490.875ZM494.149 497.5C491.524 519.025 488.024 539.125 483.899 557.9C466.249 551.675 448.099 544.325 429.674 535.975C442.649 528.975 455.649 521.55 468.599 513.675C477.324 508.375 485.849 502.975 494.149 497.5ZM369.649 535.95C347.424 546.05 325.549 554.625 304.549 561.575C299.499 539.35 295.399 515.075 292.499 488.9C304.899 497.35 317.574 505.675 330.724 513.675C343.674 521.55 356.674 528.975 369.649 535.95ZM261.674 433.175C248.024 422.35 235.074 411.325 223.124 400.225C234.874 389.275 247.824 378.225 261.674 367.2C261.274 378.05 261.049 389.05 261.049 400.2C261.049 411.35 261.274 422.35 261.674 433.175ZM292.549 311.35C295.424 285.25 299.524 261.025 304.549 238.85C325.549 245.8 347.399 254.375 369.624 264.475C356.649 271.475 343.624 278.9 330.674 286.775C317.499 294.8 304.774 303.025 292.524 311.375L292.549 311.35ZM429.699 264.45C448.124 256.1 466.274 248.75 483.899 242.525C488.024 261.275 491.524 281.375 494.149 302.9C485.824 297.425 477.349 292.05 468.649 286.75C455.699 278.875 442.674 271.45 429.699 264.45ZM525.499 357.8C544.024 371.925 561.074 386.15 576.149 400.2C561.074 414.25 544.024 428.45 525.499 442.6C526.174 428.75 526.574 414.6 526.574 400.2C526.574 385.8 526.174 371.675 525.499 357.8ZM393.799 93.65C424.174 93.65 456.549 139.95 477.474 216.4C452.324 225.15 426.174 236.125 399.674 249.05C369.374 234.275 339.574 222.075 311.174 212.8C332.099 138.525 363.924 93.65 393.824 93.65H393.799ZM137.699 241C148.974 222.425 177.274 218.525 199.024 218.525C222.124 218.525 249.349 222.95 278.899 231.05C271.824 261.75 266.624 295.625 263.724 331.875C241.874 348.2 221.874 364.875 203.999 381.625C192.574 369.925 182.124 358.25 172.974 346.65C137.274 301.35 124.424 262.85 137.699 241ZM198.999 581.875C177.249 581.875 148.974 577.975 137.699 559.4C121.449 532.65 145.899 478.525 204.049 418.85C222.124 435.675 242.174 452.25 263.724 468.325C266.624 504.65 271.824 538.575 278.899 569.325C249.349 577.425 222.124 581.85 199.024 581.85L198.999 581.875ZM393.799 706.75C363.924 706.75 332.099 661.875 311.149 587.625C339.549 578.35 369.374 566.15 399.649 551.35C426.149 564.275 452.299 575.25 477.449 584.025C456.549 660.45 424.174 706.75 393.799 706.75ZM661.624 559.425C650.349 577.975 622.074 581.9 600.324 581.9C574.374 581.9 543.249 576.325 509.424 566.2C515.549 538.975 520.174 509.275 523.074 477.7C549.824 458.5 574.024 438.7 595.249 418.85C653.424 478.55 677.874 532.675 661.624 559.45V559.425Z" fill="#FFDB70"/>
<path fill-rule="evenodd" clip-rule="evenodd" d="M363.526 334.545C354.061 339.423 351.312 344.607 351.312 347.832C351.312 351.058 354.061 356.241 363.526 361.12C372.503 365.746 385.475 368.85 400.25 368.85C415.025 368.85 427.996 365.746 436.974 361.12C446.438 356.241 449.188 351.058 449.188 347.832C449.188 344.607 446.438 339.423 436.974 334.545C427.996 329.919 415.025 326.814 400.25 326.814C385.475 326.814 372.503 329.919 363.526 334.545ZM449.188 373.317C447.594 374.348 445.945 375.295 444.269 376.159C432.582 382.182 417.007 385.665 400.25 385.665C383.493 385.665 367.918 382.182 356.231 376.159C354.556 375.295 352.906 374.348 351.312 373.317V384.264C351.312 388.08 354.332 393.575 363.663 398.614C372.608 403.443 385.53 406.683 400.25 406.683C414.97 406.683 427.892 403.443 436.837 398.614C446.168 393.575 449.188 388.08 449.188 384.264V373.317ZM465.5 347.832V384.264C465.5 384.734 465.488 385.202 465.463 385.665H465.5V417.892C465.5 418.363 465.488 418.831 465.463 419.294H465.5V451.521C465.5 464.728 455.739 474.648 444.406 480.766C432.687 487.094 417.062 490.755 400.25 490.755C383.438 490.755 367.813 487.094 356.094 480.766C344.761 474.648 335 464.728 335 451.521V419.294H335.037C335.012 418.831 335 418.363 335 417.892V385.665H335.037C335.012 385.202 335 384.734 335 384.264V347.832C335 334.807 345.032 325.278 356.231 319.506C367.918 313.483 383.493 310 400.25 310C417.007 310 432.582 313.483 444.269 319.506C455.468 325.278 465.5 334.807 465.5 347.832ZM351.312 444.254V451.521C351.312 455.338 354.332 460.833 363.663 465.872C372.608 470.701 385.53 473.94 400.25 473.94C414.97 473.94 427.892 470.701 436.837 465.872C446.168 460.833 449.188 455.338 449.188 451.521V444.254C447.643 445.293 446.04 446.255 444.406 447.137C432.687 453.465 417.062 457.126 400.25 457.126C383.438 457.126 367.813 453.465 356.094 447.137C354.459 446.255 352.857 445.293 351.312 444.254ZM444.406 413.508C446.04 412.626 447.643 411.664 449.188 410.625V417.892C449.188 421.709 446.168 427.204 436.837 432.243C427.892 437.072 414.97 440.312 400.25 440.312C385.53 440.312 372.608 437.072 363.663 432.243C354.332 427.204 351.312 421.709 351.312 417.892V410.625C352.857 411.664 354.459 412.626 356.094 413.508C367.813 419.836 383.438 423.497 400.25 423.497C417.062 423.497 432.687 419.836 444.406 413.508Z" fill="#FFDB70"/>
</svg>
