<svg width="800" height="800" viewBox="0 0 800 800" fill="none" xmlns="http://www.w3.org/2000/svg">
<path d="M64 179.417V70.125" stroke="#FFDB70" stroke-width="24" stroke-linecap="round"/>
<path d="M215 70.125V179.417" stroke="#FFDB70" stroke-width="24" stroke-linecap="round"/>
<path d="M139.5 106.709C181.198 106.709 215 90.4323 215 70.3543C215 50.2764 181.198 34 139.5 34C97.8025 34 64 50.2764 64 70.3543C64 90.4323 97.8025 106.709 139.5 106.709Z" stroke="#FFDB70" stroke-width="24"/>
<path d="M215 125C215 144.951 181.198 161.126 139.5 161.126C97.8025 161.126 64 144.951 64 125" stroke="#FFDB70" stroke-width="24"/>
<path d="M215 179.416C215 199.62 181.198 215.999 139.5 215.999C97.8025 215.999 64 199.62 64 179.416" stroke="#FFDB70" stroke-width="24"/>
<path d="M588.172 532.641V468C588.172 460.193 585.07 452.705 579.55 447.185C574.029 441.664 566.542 438.562 558.734 438.562H525.5C519.637 438.551 513.91 436.796 509.046 433.522C504.183 430.247 500.403 425.6 498.188 420.172L498.031 419.797C495.76 414.389 495.141 408.429 496.254 402.67C497.366 396.911 500.159 391.611 504.281 387.438L527.719 364C530.453 361.268 532.623 358.023 534.103 354.452C535.583 350.881 536.344 347.053 536.344 343.187C536.344 339.322 535.583 335.494 534.103 331.923C532.623 328.352 530.453 325.107 527.719 322.375L482.125 276.562C479.393 273.828 476.148 271.659 472.577 270.179C469.006 268.699 465.178 267.937 461.313 267.937C457.447 267.937 453.619 268.699 450.048 270.179C446.477 271.659 443.232 273.828 440.5 276.562L417.063 300C412.89 304.122 407.589 306.915 401.83 308.028C396.071 309.14 390.111 308.521 384.703 306.25L384.328 306.094C378.905 303.88 374.261 300.105 370.987 295.248C367.713 290.391 365.955 284.67 365.938 278.812V245.703C365.938 237.896 362.836 230.408 357.316 224.888C351.795 219.367 344.307 216.266 336.5 216.266H271.797C263.99 216.266 256.502 219.367 250.981 224.888C245.461 230.408 242.359 237.896 242.359 245.703V278.938C242.348 284.801 240.593 290.528 237.319 295.391C234.044 300.255 229.397 304.034 223.969 306.25L223.594 306.406C218.186 308.678 212.226 309.296 206.467 308.184C200.708 307.072 195.407 304.278 191.234 300.156L167.797 276.719C165.065 273.984 161.82 271.815 158.249 270.335C154.678 268.855 150.85 268.093 146.984 268.093C143.119 268.093 139.291 268.855 135.72 270.335C132.149 271.815 128.904 273.984 126.172 276.719L80.4063 322.312C77.6718 325.045 75.5026 328.289 74.0225 331.86C72.5425 335.432 71.7808 339.259 71.7808 343.125C71.7808 346.991 72.5425 350.818 74.0225 354.39C75.5026 357.961 77.6718 361.205 80.4063 363.937L103.844 387.375C107.966 391.548 110.759 396.849 111.872 402.608C112.984 408.367 112.365 414.326 110.094 419.734L109.938 420.109C107.724 425.533 103.949 430.176 99.0917 433.451C94.2345 436.725 88.5141 438.482 82.6563 438.5H49.5001C45.629 438.5 41.796 439.263 38.2204 440.747C34.6448 442.23 31.3968 444.404 28.6625 447.144C25.9281 449.884 23.7611 453.137 22.2854 456.716C20.8097 460.294 20.0543 464.129 20.0626 468V532.641C20.0626 540.448 23.164 547.935 28.6846 553.456C34.2052 558.977 41.6928 562.078 49.5001 562.078H82.7344C88.5922 562.096 94.3126 563.853 99.1699 567.128C104.027 570.402 107.802 575.045 110.016 580.469L110.172 580.844C112.443 586.252 113.062 592.211 111.95 597.97C110.837 603.73 108.044 609.03 103.922 613.203L80.4844 636.641C77.7499 639.373 75.5807 642.617 74.1007 646.189C72.6207 649.76 71.8589 653.587 71.8589 657.453C71.8589 661.319 72.6207 665.147 74.1007 668.718C75.5807 672.289 77.7499 675.533 80.4844 678.266L126.188 723.969C128.92 726.703 132.164 728.872 135.736 730.352C139.307 731.833 143.134 732.594 147 732.594C150.866 732.594 154.694 731.833 158.265 730.352C161.836 728.872 165.08 726.703 167.813 723.969L191.25 700.531C195.423 696.409 200.724 693.616 206.483 692.503C212.242 691.391 218.202 692.01 223.609 694.281L223.984 694.437C229.408 696.651 234.051 700.426 237.326 705.283C240.6 710.141 242.357 715.861 242.375 721.719V754.953C242.379 762.755 245.48 770.236 250.997 775.753C256.514 781.27 263.995 784.371 271.797 784.375H336.438C344.245 784.375 351.732 781.274 357.253 775.753C362.774 770.232 365.875 762.745 365.875 754.938V721.703C365.893 715.845 367.65 710.125 370.925 705.268C374.199 700.411 378.842 696.636 384.266 694.422L384.641 694.266C390.049 691.994 396.008 691.376 401.767 692.488C407.526 693.6 412.827 696.394 417 700.516L440.438 723.953C443.17 726.688 446.414 728.857 449.986 730.337C453.557 731.817 457.384 732.579 461.25 732.579C465.116 732.579 468.943 731.817 472.515 730.337C476.086 728.857 479.33 726.688 482.063 723.953L527.875 678.328C530.61 675.596 532.779 672.351 534.259 668.78C535.739 665.209 536.501 661.381 536.501 657.516C536.501 653.65 535.739 649.822 534.259 646.251C532.779 642.68 530.61 639.435 527.875 636.703L504.438 613.266C500.316 609.093 497.522 603.792 496.41 598.033C495.297 592.274 495.916 586.314 498.188 580.906L498.344 580.531C500.557 575.108 504.332 570.464 509.19 567.19C514.047 563.916 519.767 562.158 525.625 562.141H558.859C566.656 562.108 574.121 558.983 579.616 553.452C585.112 547.922 588.189 540.437 588.172 532.641Z" stroke="#FFDB70" stroke-width="31.25" stroke-linecap="round" stroke-linejoin="round"/>
<path d="M304.125 617.188C368.673 617.188 421 564.861 421 500.313C421 435.764 368.673 383.438 304.125 383.438C239.577 383.438 187.25 435.764 187.25 500.313C187.25 564.861 239.577 617.188 304.125 617.188Z" stroke="#FFDB70" stroke-width="31.25" stroke-linecap="round" stroke-linejoin="round"/>
<path d="M328.578 216.266V215.625C328.578 209.409 331.047 203.448 335.443 199.052C339.838 194.657 345.8 192.188 352.016 192.188H378.422C383.079 192.183 387.63 190.791 391.492 188.188C395.355 185.586 398.355 181.893 400.109 177.578C400.109 177.484 400.188 177.375 400.234 177.281C402.04 172.979 402.526 168.236 401.63 163.657C400.734 159.077 398.497 154.867 395.203 151.562L376.453 132.906C372.078 128.514 369.622 122.567 369.622 116.367C369.622 110.168 372.078 104.221 376.453 99.8281L412.766 63.5156C417.158 59.1456 423.101 56.6924 429.297 56.6924C435.493 56.6924 441.436 59.1456 445.828 63.5156L464.5 82.2656C467.812 85.5444 472.022 87.7667 476.597 88.6512C481.173 89.5357 485.908 89.0426 490.203 87.2344L490.5 87.1094C494.817 85.3575 498.515 82.3586 501.12 78.4957C503.725 74.6328 505.119 70.0811 505.125 65.4219V39.0625C505.125 32.8465 507.594 26.8851 511.99 22.4897C516.385 18.0943 522.346 15.625 528.563 15.625H579.922C586.138 15.625 592.099 18.0943 596.495 22.4897C600.89 26.8851 603.359 32.8465 603.359 39.0625V65.4688C603.364 70.1262 604.756 74.6766 607.358 78.5393C609.96 82.402 613.654 85.402 617.969 87.1562L618.25 87.2813C622.548 89.0887 627.285 89.5814 631.863 88.697C636.441 87.8125 640.653 85.5908 643.969 82.3125L662.719 63.5625C667.111 59.1925 673.054 56.7393 679.25 56.7393C685.446 56.7393 691.389 59.1925 695.781 63.5625L732.094 99.875C736.469 104.268 738.925 110.215 738.925 116.414C738.925 122.614 736.469 128.561 732.094 132.953L713.312 151.562C710.03 154.875 707.806 159.089 706.924 163.668C706.042 168.248 706.542 172.986 708.359 177.281L708.469 177.578C710.222 181.89 713.22 185.582 717.079 188.184C720.939 190.786 725.486 192.18 730.141 192.188H756.547C762.763 192.188 768.724 194.657 773.12 199.052C777.515 203.448 779.984 209.409 779.984 215.625V266.969C779.984 273.185 777.515 279.146 773.12 283.542C768.724 287.937 762.763 290.406 756.547 290.406H730.141C725.484 290.415 720.936 291.811 717.076 294.416C713.216 297.021 710.22 300.716 708.469 305.031L708.359 305.312C706.531 309.605 706.026 314.346 706.908 318.928C707.791 323.51 710.021 327.724 713.312 331.031L731.984 349.703C736.354 354.095 738.808 360.039 738.808 366.234C738.808 372.43 736.354 378.374 731.984 382.766L695.672 419.078C691.28 423.448 685.336 425.901 679.141 425.901C672.945 425.901 667.001 423.448 662.609 419.078L643.859 400.406C640.554 397.112 636.341 394.879 631.759 393.994C627.177 393.108 622.435 393.611 618.141 395.438L617.859 395.547C613.567 397.31 609.895 400.308 607.308 404.161C604.721 408.013 603.336 412.547 603.328 417.188V443.594C603.309 448.36 601.838 453.007 599.111 456.915C596.383 460.823 592.529 463.807 588.062 465.469" stroke="#FFDB70" stroke-width="31.25" stroke-linecap="round" stroke-linejoin="round"/>
<path d="M554.25 317.375C596.267 317.375 630.328 283.314 630.328 241.297C630.328 199.28 596.267 165.219 554.25 165.219C512.233 165.219 478.172 199.28 478.172 241.297C478.172 283.314 512.233 317.375 554.25 317.375Z" stroke="#FFDB70" stroke-width="31.25" stroke-linecap="round" stroke-linejoin="round"/>
</svg>
