<svg width="1000" height="1000" viewBox="0 0 1000 1000" fill="none" xmlns="http://www.w3.org/2000/svg">
<rect width="1000" height="1000" rx="500" fill="#FFDB70"/>
<path d="M770.078 555.547C764.844 546.328 753.047 543.203 743.906 548.516C734.688 553.75 731.563 565.547 736.797 574.688C788.828 665.234 801.953 740.781 771.016 771.719C711.875 830.938 527.578 729.141 399.141 600.703C366.719 568.281 337.578 534.531 312.188 500.781C338.281 465.547 367.891 431.094 399.141 399.844C527.5 271.484 711.797 169.766 771.016 228.906C795.156 253.047 792.656 305.156 764.063 371.875C732.734 445 674.453 526.328 600 600.781C582.578 618.203 564.531 635 546.328 650.625C538.281 657.5 537.422 669.688 544.297 677.656C551.25 685.703 563.359 686.563 571.328 679.688C590.234 663.438 608.984 645.938 627.109 627.891C704.922 550.078 766.094 464.531 799.297 387.031C834.922 303.984 834.453 238.203 798.125 201.875C726.563 130.312 539.375 205.469 372.031 372.891C340.859 404.063 312.891 435.938 288.438 467.578C266.484 435 248.281 402.734 235.078 371.953C206.484 305.313 203.984 253.203 228.125 228.984C259.063 198.047 334.453 211.094 425 263.047C434.141 268.281 445.938 265.156 451.172 255.938C456.406 246.719 453.281 235 444.063 229.766C334.687 167.031 246.094 156.797 201.016 201.875C164.609 238.281 164.219 303.984 199.844 387.031C215.469 423.594 237.5 461.875 264.375 500.313C176.172 626.719 147.422 745.234 201.016 798.828C219.609 817.422 245.547 826.563 277.266 826.563C323.125 826.563 381.094 807.344 446.406 769.531C455.547 764.219 458.672 752.5 453.359 743.281C448.047 734.141 436.328 731.016 427.109 736.328C335.625 789.453 259.375 802.969 228.125 771.719C187.813 731.406 222.266 632.969 288.906 533.672C313.594 565.625 341.484 597.344 371.953 627.813C449.766 705.625 535.313 766.719 612.891 800C653.906 817.578 690.781 826.406 721.953 826.406C753.828 826.406 779.688 817.188 798.125 798.828C843.203 753.75 832.969 665.078 770.078 555.547ZM499.609 436.328C464.297 436.328 435.625 465 435.625 500.313C435.625 535.625 464.297 564.297 499.609 564.297C534.922 564.297 563.594 535.625 563.594 500.313C563.516 465 534.922 436.328 499.609 436.328Z" fill="black"/>
</svg>
