<svg width="800" height="800" viewBox="0 0 800 800" fill="none" xmlns="http://www.w3.org/2000/svg">
<path fill-rule="evenodd" clip-rule="evenodd" d="M183.067 182.511C180.005 182.511 177.508 180.079 177.508 177.021C177.508 173.963 180.005 171.53 183.067 171.53H239.788C242.706 171.53 245.275 173.963 245.275 177.021C245.275 180.079 242.705 182.511 239.788 182.511H183.067ZM183.067 206.283C180.005 206.283 177.508 203.78 177.508 200.791C177.508 197.733 180.005 195.302 183.067 195.302H274.956C278.019 195.302 280.517 197.735 280.517 200.791C280.517 203.782 278.019 206.283 274.956 206.283H183.067ZM183.067 230.055C180.005 230.055 177.508 227.552 177.508 224.493C177.508 221.505 180.005 219.004 183.067 219.004H305.675C308.667 219.004 311.102 221.507 311.102 224.493C311.102 227.552 308.666 230.055 305.675 230.055H183.067ZM183.067 253.757C180.005 253.757 177.508 251.322 177.508 248.266C177.508 245.207 180.005 242.774 183.067 242.774H239.788C242.706 242.774 245.275 245.208 245.275 248.266C245.275 251.324 242.705 253.757 239.788 253.757H183.067ZM728.083 123.221C722.583 117.797 715.155 114.461 707.014 114.461H140.18C132.05 114.461 124.537 117.797 119.122 123.221C113.695 128.641 110.366 136.079 110.366 144.28V552.361C110.366 560.561 113.695 568.071 119.122 573.422C124.537 578.844 132.05 582.249 140.18 582.249H707.013C715.153 582.249 722.583 578.843 728.009 573.493C733.427 568.071 736.766 560.563 736.766 552.363V144.28C736.766 136.079 733.427 128.643 728.083 123.221ZM700.488 472.497V150.397H145.256V472.497H700.488ZM711.536 144.907V477.988C711.536 481.047 709.098 483.549 706.048 483.549H139.758C136.706 483.549 134.27 481.047 134.27 477.988V144.907C134.27 141.847 136.708 139.414 139.758 139.414H706.048C709.098 139.414 711.536 141.849 711.536 144.907ZM429.127 545.343C427.666 543.952 425.714 543.119 423.566 543.119C421.406 543.119 419.392 543.952 418.005 545.343C416.606 546.802 415.773 548.747 415.773 550.905C415.773 553.06 416.606 555.005 418.005 556.396C419.392 557.855 421.406 558.689 423.566 558.689C425.714 558.689 427.666 557.855 429.127 556.396C430.512 555.005 431.345 553.06 431.345 550.905C431.345 548.746 430.511 546.8 429.127 545.343ZM423.566 532.064C428.705 532.064 433.503 534.219 436.905 537.627C440.247 540.963 442.405 545.689 442.405 550.904C442.405 556.116 440.247 560.772 436.905 564.179C433.503 567.585 428.705 569.739 423.566 569.739C418.417 569.739 413.689 567.585 410.288 564.179C406.884 560.772 404.798 556.116 404.798 550.904C404.798 545.689 406.884 540.963 410.214 537.627C413.689 534.219 418.356 532.064 423.566 532.064ZM302.478 330.561H272.17V396.177H302.478V330.561ZM266.756 319.51H307.977C310.958 319.51 313.467 322.013 313.467 325.002V401.669C313.467 404.657 310.959 407.16 307.977 407.16H266.756C263.694 407.16 261.195 404.657 261.195 401.669V325.002C261.195 322.013 263.692 319.51 266.756 319.51ZM370.247 253.896H340.011V396.177H370.247V253.896ZM334.45 242.911H375.744C378.797 242.911 381.231 245.346 381.231 248.404V401.669C381.231 404.657 378.797 407.16 375.744 407.16H334.45C331.398 407.16 328.962 404.657 328.962 401.669V248.404C328.962 245.346 331.4 242.911 334.45 242.911ZM438.025 293.724H407.791V396.177H438.025V293.724ZM402.292 282.672H443.586C446.567 282.672 449.003 285.105 449.003 288.163V401.671C449.003 404.658 446.567 407.161 443.586 407.161H402.292C399.239 407.161 396.731 404.658 396.731 401.671V288.163C396.731 285.104 399.239 282.672 402.292 282.672ZM505.795 321.735H475.558V396.177H505.795V321.735ZM469.998 310.683H511.283C514.345 310.683 516.844 313.186 516.844 316.174V401.669C516.844 404.657 514.345 407.16 511.283 407.16H469.998C467.008 407.16 464.572 404.657 464.572 401.669V316.174C464.572 313.185 467.008 310.683 469.998 310.683ZM573.562 270.855H543.327V396.177H573.562V270.855ZM537.839 259.872H579.123C582.188 259.872 584.611 262.375 584.611 265.364V401.669C584.611 404.657 582.188 407.16 579.123 407.16H537.839C534.777 407.16 532.341 404.657 532.341 401.669V265.364C532.341 262.374 534.777 259.872 537.839 259.872ZM262.859 730.788H224.288V702.846C224.288 699.788 226.712 697.285 229.775 697.285H327.923L355.302 593.23H491.886L519.275 697.285H617.352C620.344 697.285 622.841 699.788 622.841 702.846V730.788H584.261V708.338H262.859V730.788ZM74.2203 288.997C74.2203 292.055 71.7125 294.488 68.7219 294.488C65.6687 294.488 63.2344 292.055 63.2344 288.997V114.114C63.2344 101.811 68.2391 90.552 76.3672 82.4191C84.5078 74.2863 95.7609 69.2129 108.002 69.2129H208.503C211.566 69.2129 214.064 71.716 214.064 74.7738C214.064 77.7629 211.566 80.2645 208.503 80.2645H108.002C98.7531 80.2645 90.2734 84.0879 84.1578 90.2035C78.0437 96.3207 74.2203 104.802 74.2203 114.114V288.997ZM221.431 432.183C218.439 432.183 215.944 429.75 215.944 426.761C215.944 423.702 218.441 421.2 221.431 421.2H624.3C627.364 421.2 629.861 423.702 629.861 426.761C629.861 429.75 627.364 432.183 624.3 432.183H221.431Z" fill="#FFDB70"/>
</svg>
